<svg width="20" height="17" viewBox="0 0 20 17" fill="none" xmlns="http://www.w3.org/2000/svg">
  <path d="M10.8379 8.43223L3.11354 9.48209C3.02474 9.49418 2.9414 9.52513 2.87191 9.57183C2.80242 9.61853 2.74923 9.67933 2.71769 9.74812L0.0543633 15.5688C-0.19997 16.1042 0.486115 16.6144 1.1158 16.3568L19.5755 8.82792C19.7031 8.77576 19.8103 8.69567 19.8853 8.59661C19.9603 8.49755 20 8.38343 20 8.26702C20 8.1506 19.9603 8.03648 19.8853 7.93743C19.8103 7.83837 19.7031 7.75828 19.5755 7.70612L1.1158 0.177242C0.486115 -0.0795759 -0.19997 0.430714 0.0543633 0.965264L2.71871 6.78592C2.75025 6.85471 2.80345 6.91551 2.87294 6.9622C2.94243 7.0089 3.02576 7.03985 3.11457 7.05194L10.8389 8.1018C10.8871 8.10807 10.931 8.12815 10.9626 8.15844C10.9943 8.18872 11.0117 8.22722 11.0117 8.26702C11.0117 8.30682 10.9943 8.34532 10.9626 8.3756C10.931 8.40588 10.8871 8.42596 10.8389 8.43223H10.8379Z" fill="#999999"/>
</svg>